# xmcd
#
# Track frame offsets: 
#        150
#        42681
#        49950
#        104177
#        152767
#        179793
#        223294
#        273618
#        313943
#        331138
#
# Disc length: 4677 seconds
#
# Revision: 0
# Processed by: cddbd v1.4PL0 Copyright (c) Steve Scherf et al.
# Submitted via: ExactAudioCopy v0.95a3
#
DISCID=ab12430a
DTITLE=Salacious Crump - The Blues The Science and the Watermelon
DYEAR=1996
DGENRE=
TTITLE0=Bluefonk isa fact
TTITLE1=Dugg-Egg
TTITLE2=Bluw My Mind
TTITLE3=Azuric Jelly
TTITLE4=Bella Soda
TTITLE5=Tahiti Dawn
TTITLE6=Oceanspray
TTITLE7=Arqunois Memories
TTITLE8=Melting Horizon
TTITLE9=Sardies Dream
EXTD=
EXTT0=
EXTT1=
EXTT2=
EXTT3=
EXTT4=
EXTT5=
EXTT6=
EXTT7=
EXTT8=
EXTT9=
PLAYORDER=
